<svg width="206" height="86" viewBox="0 0 206 86" fill="none" xmlns="http://www.w3.org/2000/svg">
<g filter="url(#filter0_d)">
<path d="M36.9723 59.626C36.4231 59.626 36.0007 59.5415 35.705 59.3725C35.367 59.2458 34.9234 58.9501 34.3743 58.4854C33.8673 57.9785 33.4026 57.2814 32.9802 56.3943C32.6 55.4649 32.4099 54.3665 32.4099 53.0992C32.4099 52.2965 32.4521 51.5995 32.5366 51.0081C32.6634 50.3744 32.7267 49.9731 32.7267 49.8041C32.7267 49.5929 32.6634 49.4873 32.5366 49.4873C31.4383 49.4873 29.0514 51.4939 25.3762 55.5071C25.2494 55.5916 25.1438 55.6972 25.0593 55.824C24.5524 56.2042 24.0877 56.6055 23.6652 57.0279C23.0316 57.6194 22.5035 58.0629 22.0811 58.3587C21.7009 58.6121 21.2784 58.76 20.8137 58.8022C20.518 58.8022 20.2012 58.6755 19.8632 58.422L19.1662 57.8517C18.955 57.725 18.7649 57.4926 18.5959 57.1547C18.4269 56.8167 18.3424 56.4999 18.3424 56.2042V56.0141V55.8873L19.7999 51.6418C20.856 49.3183 21.384 47.9453 21.384 47.5229C21.384 47.4384 21.3629 47.3962 21.3207 47.3962C20.9405 47.3539 20.3702 47.6919 19.6098 48.41C18.8916 49.086 17.8566 50.1632 16.5048 51.6418L13.6533 54.62C13.3153 54.958 12.4071 55.9718 10.9285 57.6616C9.99911 58.8022 9.51329 59.3725 9.47105 59.3725C8.54167 59.3725 7.69677 59.0134 6.93637 58.2953C6.21821 57.5771 5.85913 56.7111 5.85913 55.6972C5.85913 55.1903 5.94362 54.5144 6.1126 53.6695C6.28158 52.8246 6.47168 51.9375 6.6829 51.0081C6.76739 50.6701 6.85188 50.2899 6.93637 49.8675C7.0631 49.445 7.18984 48.9592 7.31657 48.41C7.40106 47.9876 7.48555 47.5229 7.57004 47.016C7.69677 46.509 7.92912 45.8542 8.26707 45.0516C8.60503 44.2067 9.09085 43.045 9.72452 41.5664C9.89349 41.0172 9.97798 40.4469 9.97798 39.8555C9.97798 39.5598 9.95686 39.2852 9.91462 39.0317C9.87237 38.736 9.85125 38.5459 9.85125 38.4614C9.85125 37.8278 10.147 37.2997 10.7384 36.8773C11.3721 36.4126 12.0691 36.1802 12.8295 36.1802C13.9279 36.1802 14.7516 36.5815 15.3008 37.3842C15.85 38.1446 16.1246 38.9472 16.1246 39.7921C16.1246 40.5103 15.9556 41.2073 15.6176 41.8832L14.9206 43.5942C14.7516 43.9744 14.4348 44.6714 13.9701 45.6853C13.5477 46.6569 13.3364 47.2483 13.3364 47.4595C13.3364 47.5863 13.3787 47.6496 13.4632 47.6496H13.5265C13.7378 47.6496 14.0757 47.4173 14.5404 46.9526C15.8922 45.6853 17.5187 44.3757 19.4197 43.0238C21.3629 41.6298 22.757 40.806 23.6019 40.5525C23.9398 40.5525 24.3834 40.7215 24.9326 41.0595C25.4818 41.3974 25.9676 41.8621 26.39 42.4535C26.8125 43.0027 27.0237 43.6153 27.0237 44.2912L26.9603 44.7981C26.9181 44.9671 26.728 45.6853 26.39 46.9526C26.0943 48.2199 25.862 48.9592 25.693 49.1704C26.4956 48.2411 27.8897 47.1005 29.8752 45.7486C31.8607 44.3546 33.3181 43.6364 34.2475 43.5942C35.6416 43.5942 36.5499 44.1645 36.9723 45.3051C37.3948 46.4457 37.6905 48.1143 37.8595 50.3111C38.0284 52.381 38.2608 53.7751 38.5565 54.4933C38.641 54.7467 38.9367 54.958 39.4436 55.1269C39.9506 55.2959 40.3519 55.5071 40.6476 55.7606C40.9856 55.9718 41.1545 56.4154 41.1545 57.0913C41.1545 58.0207 40.7321 58.6755 39.8872 59.0557C39.0845 59.4359 38.1129 59.626 36.9723 59.626ZM61.7701 37.5743C62.1503 38.3347 62.3404 39.2007 62.3404 40.1723C62.3404 41.3974 62.0658 42.4113 61.5166 43.214C61.0942 43.8054 60.714 44.6925 60.376 45.8754C60.0803 47.0582 59.7846 48.6424 59.4889 50.6279C59.1087 52.2332 58.644 54.7045 58.0948 58.0418C57.4189 59.8161 56.9964 61.1468 56.8275 62.0339C56.7852 62.2874 56.574 62.8155 56.1938 63.6181C55.8558 64.4208 55.5812 65.0544 55.37 65.5191C53.469 69.3634 51.2089 72.2571 48.5898 74.2004C46.0128 76.1437 43.3725 77.1998 40.6689 77.3687C39.993 77.4532 39.5916 77.4955 39.4649 77.4955C39.0847 77.4955 38.7256 77.4321 38.3877 77.3054C38.092 77.1786 37.754 77.0097 37.3738 76.7984C36.5289 76.207 36.0431 75.7846 35.9164 75.5311C35.7051 75.1087 35.5995 74.6862 35.5995 74.2638C35.5995 73.6301 35.8952 73.1865 36.4867 72.9331C37.0781 72.7218 37.754 72.6162 38.5144 72.6162C38.8101 72.7852 39.3171 72.8697 40.0352 72.8697C40.7534 72.8697 41.1758 72.7852 41.3026 72.6162C41.387 72.5317 41.6405 72.3839 42.063 72.1727C42.4854 72.0037 42.9712 71.8558 43.5204 71.7291C44.9145 71.0532 45.9706 70.3773 46.6887 69.7013C47.4491 69.0254 48.2729 67.9482 49.1601 66.4696C50.2162 64.8643 50.9132 63.4069 51.2512 62.0973C51.8003 60.7032 52.4551 58.6332 53.2155 55.8873L53.1522 55.9507C52.941 56.2042 52.4129 56.5844 51.568 57.0913C50.7231 57.556 50.2162 57.7884 50.0472 57.7884C50.0049 57.7884 49.9416 57.8095 49.8571 57.8517C49.7726 57.894 49.7304 57.9785 49.7304 58.1052C49.7304 58.2742 49.1812 58.5488 48.0828 58.929C46.9845 59.2669 46.2874 59.4359 45.9917 59.4359C45.5693 59.4359 45.1046 59.2035 44.5976 58.7389C44.1329 58.2742 43.795 57.8517 43.5838 57.4715C43.4148 57.0913 43.0979 56.7111 42.6333 56.3309C42.1263 55.824 41.7461 55.3804 41.4927 55.0002C41.2392 54.5778 41.1125 54.0919 41.1125 53.5428C41.1125 53.2471 41.1336 53.0147 41.1758 52.8457C41.6828 50.9447 42.6121 48.0298 43.964 44.1011C45.358 40.1301 46.3719 37.6588 47.0056 36.6872C47.1746 36.4337 47.4914 36.2225 47.9561 36.0535C48.4208 35.8845 48.8855 35.8 49.3502 35.8C50.195 35.8 50.7654 36.0535 51.0611 36.5604C51.568 37.2786 51.8215 37.8911 51.8215 38.3981C51.8215 38.9895 51.5258 39.8555 50.9343 40.9961C50.7654 41.4608 50.5541 41.9677 50.3007 42.5169C50.0472 43.0661 49.9205 43.4041 49.9205 43.5308C49.8782 43.6998 49.7515 44.2278 49.5403 45.115C49.329 45.9599 49.1389 46.3823 48.97 46.3823C48.7165 46.6358 48.4208 47.5229 48.0828 49.0437C47.7871 50.5223 47.6392 51.7051 47.6392 52.5923C47.6392 53.0992 47.7026 53.3527 47.8293 53.3527C48.97 53.3527 50.0683 53.057 51.1244 52.4655C52.1805 51.8319 53.2789 50.8391 54.4195 49.4873C54.5885 48.4312 54.8208 47.2906 55.1166 46.0655C55.4545 44.8404 55.6869 44.0166 55.8136 43.5942C56.574 40.975 57.0809 38.8628 57.3344 37.2575C57.5879 36.666 57.778 36.3281 57.9047 36.2436C58.0314 36.1168 58.306 36.0535 58.7285 36.0535C59.2354 36.0535 59.7846 36.2013 60.376 36.4971C61.0097 36.7928 61.4744 37.1518 61.7701 37.5743Z" fill="white"/>
</g>
<g filter="url(#filter1_d)">
<path d="M64.0283 18.6441V13.5079H98.249V18.6441H84.1399V60.7237H78.1374V18.6441H64.0283ZM99.3629 48.5949V26.6269H105.18V47.6048C105.18 53.8342 107.428 56.9489 111.925 56.9489C114.648 56.9489 116.752 55.8557 118.237 53.6692C119.722 51.4827 120.465 48.9043 120.465 45.934V26.6269H126.22V60.7237H120.65V55.7732H120.588C120.135 57.1346 119.083 58.496 117.432 59.8574C115.782 61.1775 113.513 61.8376 110.625 61.8376C107.407 61.8376 104.726 60.765 102.581 58.6197C100.435 56.4333 99.3629 53.0916 99.3629 48.5949ZM135.997 60.7237V11.8371H141.752V31.9487C142.453 30.3398 143.67 28.8752 145.403 27.5551C147.177 26.1937 149.24 25.513 151.591 25.513C155.799 25.513 159.244 27.1425 161.925 30.4016C164.607 33.6195 165.948 38.0337 165.948 43.6443C165.948 46.7797 165.515 49.5644 164.648 51.9984C163.782 54.4324 162.627 56.3507 161.183 57.7534C159.739 59.1148 158.212 60.1255 156.604 60.7856C154.995 61.4869 153.324 61.8376 151.591 61.8376C149.322 61.8376 147.301 61.1982 145.527 59.9193C143.753 58.5991 142.474 57.0314 141.69 55.2162V60.7237H135.997ZM141.628 43.6443C141.628 47.7285 142.494 50.967 144.227 53.3598C146.001 55.7526 148.188 56.9489 150.787 56.9489C153.468 56.9489 155.675 55.7938 157.408 53.4836C159.141 51.132 160.007 47.8523 160.007 43.6443C160.007 39.6014 159.161 36.3835 157.47 33.9908C155.778 31.598 153.551 30.4016 150.787 30.4016C148.188 30.4016 146.001 31.6186 144.227 34.0527C142.494 36.4454 141.628 39.6427 141.628 43.6443ZM171.022 43.4587C171.022 38.0956 172.487 33.7639 175.416 30.4635C178.345 27.1632 182.099 25.513 186.678 25.513C191.257 25.513 194.908 27.1425 197.631 30.4016C200.395 33.6607 201.777 37.8275 201.777 42.9018C201.777 43.5618 201.736 44.4694 201.653 45.6246H176.901C176.901 48.7599 177.788 51.4621 179.562 53.7311C181.377 55.9588 183.852 57.0727 186.987 57.0727C191.195 57.0727 194.269 55.2575 196.208 51.6271L201.097 53.1741C200.024 55.6907 198.271 57.774 195.837 59.4242C193.444 61.0331 190.474 61.8376 186.926 61.8376C182.181 61.8376 178.345 60.1668 175.416 56.8252C172.487 53.4423 171.022 48.9868 171.022 43.4587ZM177.025 41.3547H195.898C195.898 38.2606 195.073 35.641 193.423 33.4957C191.773 31.3505 189.525 30.2779 186.678 30.2779C183.79 30.2779 181.48 31.3917 179.747 33.6195C178.015 35.806 177.107 38.3844 177.025 41.3547Z" fill="white"/>
</g>
<defs>
<filter id="filter0_d" x="1.85913" y="35.8" width="64.4813" height="49.6955" filterUnits="userSpaceOnUse" color-interpolation-filters="sRGB">
<feFlood flood-opacity="0" result="BackgroundImageFix"/>
<feColorMatrix in="SourceAlpha" type="matrix" values="0 0 0 0 0 0 0 0 0 0 0 0 0 0 0 0 0 0 127 0"/>
<feOffset dy="4"/>
<feGaussianBlur stdDeviation="2"/>
<feColorMatrix type="matrix" values="0 0 0 0 0 0 0 0 0 0 0 0 0 0 0 0 0 0 0.25 0"/>
<feBlend mode="normal" in2="BackgroundImageFix" result="effect1_dropShadow"/>
<feBlend mode="normal" in="SourceGraphic" in2="effect1_dropShadow" result="shape"/>
</filter>
<filter id="filter1_d" x="60.0283" y="11.8371" width="145.749" height="58.0005" filterUnits="userSpaceOnUse" color-interpolation-filters="sRGB">
<feFlood flood-opacity="0" result="BackgroundImageFix"/>
<feColorMatrix in="SourceAlpha" type="matrix" values="0 0 0 0 0 0 0 0 0 0 0 0 0 0 0 0 0 0 127 0"/>
<feOffset dy="4"/>
<feGaussianBlur stdDeviation="2"/>
<feColorMatrix type="matrix" values="0 0 0 0 0 0 0 0 0 0 0 0 0 0 0 0 0 0 0.25 0"/>
<feBlend mode="normal" in2="BackgroundImageFix" result="effect1_dropShadow"/>
<feBlend mode="normal" in="SourceGraphic" in2="effect1_dropShadow" result="shape"/>
</filter>
</defs>
</svg>
